<?xml version="1.0" encoding="utf-8"?>
<!-- Generator: Adobe Illustrator 19.1.0, SVG Export Plug-In . SVG Version: 6.00 Build 0)  -->
<svg version="1.1" id="controls.fw-Page_x25_201" xmlns="http://www.w3.org/2000/svg" xmlns:xlink="http://www.w3.org/1999/xlink"
	 x="0px" y="0px" viewBox="0 0 144 32" style="enable-background:new 0 0 144 32;" width="144" height="32" xml:space="preserve">
<style type="text/css">
	.st0{fill:none;enable-background:new    ;}
	.st1{stroke:#FFFFFF;}
	.st2{display:none;stroke:#B0B0B0;}
	.st3{enable-background:new    ;}
	.st4{opacity:0.4;}
	.st5{opacity:0.4;enable-background:new    ;}
	path, rect, text {
		fill: rgba(233, 66, 77, 1); /* TERTIARY_COLOR */
	}
</style>
<path class="st0" d="M0,0"/>
<g id="BG">
</g>
<g id="controls">
	<path id="Line" class="st1" d="M98.5,7.5h11"/>
	<path id="Line2" class="st1" d="M98.5,3.5h11"/>
	<path id="Line3" class="st1" d="M98.5,11.5h11"/>
	<path id="Ellipse" d="M108,11.5c0-0.8,0.4-1.5,1-1.5s1,0.7,1,1.5s-0.4,1.5-1,1.5S108,12.3,108,11.5z"/>
	<path id="Ellipse2" d="M104,7.5c0-0.8,0.4-1.5,1-1.5s1,0.7,1,1.5S105.6,9,105,9S104,8.3,104,7.5z"/>
	<path id="Ellipse3" d="M108,3.5c0-0.8,0.4-1.5,1-1.5s1,0.7,1,1.5S109.6,5,109,5S108,4.3,108,3.5z"/>
</g>
<g id="backlight">
	<g id="off">
		<rect x="83" y="21" class="st1" width="10" height="6"/>
	</g>
	<g id="on">
		<path id="Ellipse4" d="M81,8c0-2.8,3.1-5,7-5s7,2.2,7,5s-3.1,5-7,5S81,10.8,81,8z"/>
		<rect x="83" y="5" class="st1" width="10" height="6"/>
	</g>
</g>
<g id="loop">
	<g id="on2">
		<path d="M73.8,4.2c1.4,0.7,2.4,2.1,2.4,3.8c0,2.3-1.9,4.2-4.2,4.2s-4.2-1.9-4.2-4.2c0-1.7,1-3.1,2.4-3.8l-1.3-1.3
			C67.2,3.9,66,5.8,66,8c0,3.3,2.7,6,6,6s6-2.7,6-6c0-2.2-1.2-4.1-2.9-5.1L73.8,4.2z"/>
		<path d="M71,2h-5l5,5V2z"/>
	</g>
	<g id="off2">
		<path d="M73.8,20.2c1.4,0.7,2.4,2.1,2.4,3.8c0,2.3-1.9,4.2-4.2,4.2s-4.2-1.9-4.2-4.2c0-1.7,1-3.1,2.4-3.8l-1.3-1.3
			C67.2,20,66,21.9,66,24c0,3.3,2.7,6,6,6s6-2.7,6-6c0-2.2-1.2-4.1-2.9-5.1L73.8,20.2z"/>
		<path d="M71,18h-5l5,5V18z"/>
	</g>
</g>
<g id="cc">
	<rect x="49" y="2" class="st2" width="14" height="12"/>
	<path d="M50,3h12v10H50V3z M49,2v12h14V2H49z"/>
</g>
<g id="volume">
	<g id="no_x25_20sound">
		<rect x="17" y="5" width="5" height="6"/>
		<path d="M21,5l4-3v12l-4-2.9V5z"/>
	</g>
	<g id="sound_x25_20bars">
		<rect x="17" y="21" width="5" height="6"/>
		<path d="M21,21l4-3v12l-4-2.9V21z"/>
		<path class="st1" d="M27,18c0,0,3.1-0.6,3,6s-3,6-3,6"/>
		<path class="st1" d="M26,21c0,0,2-0.3,2,3s-2,3-2,3"/>
	</g>
</g>
<g id="play_x2F_pause">
	<g id="play">
		<path id="Polygon" d="M14,8.5L3,14V3L14,8.5z"/>
	</g>
	<g id="pause">
		<rect x="3" y="18" width="3" height="12"/>
		<rect x="10" y="18" width="3" height="12"/>
	</g>
</g>
<g id="fullscreen">
	<g id="enter_x25_201">
		<path d="M34,2h5l-5,5V2z"/>
		<path d="M34,14h5l-5-5V14z"/>
		<path d="M46,2h-5l5,5V2z"/>
		<path d="M46,14h-5l5-5V14z"/>
	</g>
	<g id="exit">
		<path d="M42,22h4l-4-4V22z"/>
		<path d="M38,22v-4l-4,4H38z"/>
		<path d="M38,26h-4l4,4V26z"/>
		<path d="M42,26v4l4-4H42z"/>
	</g>
</g>
<g id="stop">
	<rect x="115" y="3" width="10" height="10"/>
</g>
<g id="chooser">
	<path d="M135.2,6.2c1-0.4,2.2,0.1,2.6,1.1c0.4,1-0.1,2.2-1.1,2.6s-2.2-0.1-2.6-1.1S134.2,6.6,135.2,6.2z M133.3,1.4L136,4l2.7-2.6
		l0.1,3.8l3.8,0.1L140,8l2.6,2.7l-3.8,0.1l-0.1,3.8L136,12l-2.7,2.6l-0.1-3.8l-3.8-0.1L132,8l-2.6-2.7l3.8-0.1L133.3,1.4z"/>
</g>
<path class="st3" d="M0,0"/>
<g class="st3">
	<path d="M55.7,6.9l-1.4,0.2c0-0.3-0.1-0.5-0.3-0.6s-0.4-0.2-0.6-0.2c-0.3,0-0.6,0.1-0.8,0.4c-0.2,0.2-0.3,0.6-0.3,1.2
		c0,0.6,0.1,1,0.3,1.3s0.5,0.4,0.8,0.4c0.3,0,0.5-0.1,0.6-0.2c0.2-0.1,0.3-0.4,0.4-0.8l1.3,0.2c-0.1,0.6-0.4,1.1-0.8,1.4
		s-0.9,0.5-1.6,0.5c-0.8,0-1.4-0.2-1.8-0.7s-0.7-1.1-0.7-2c0-0.9,0.2-1.5,0.7-2c0.5-0.5,1.1-0.7,1.8-0.7c0.6,0,1.1,0.1,1.5,0.4
		C55.3,6,55.6,6.4,55.7,6.9z"/>
	<path d="M61.3,6.9l-1.4,0.2c0-0.3-0.1-0.5-0.3-0.6S59.3,6.4,59,6.4c-0.3,0-0.6,0.1-0.8,0.4c-0.2,0.2-0.3,0.6-0.3,1.2
		c0,0.6,0.1,1,0.3,1.3s0.5,0.4,0.8,0.4c0.3,0,0.5-0.1,0.6-0.2C59.8,9.2,60,9,60,8.6l1.3,0.2c-0.1,0.6-0.4,1.1-0.8,1.4
		s-0.9,0.5-1.6,0.5c-0.8,0-1.4-0.2-1.8-0.7s-0.7-1.1-0.7-2c0-0.9,0.2-1.5,0.7-2c0.5-0.5,1.1-0.7,1.8-0.7c0.6,0,1.1,0.1,1.5,0.4
		C60.9,6,61.1,6.4,61.3,6.9z"/>
</g>
<g id="cc_1_" class="st4">
	<rect x="49" y="18" class="st2" width="14" height="12"/>
	<path d="M50,19h12v10H50V19z M49,18v12h14V18H49z"/>
</g>
<g class="st5">
	<path d="M55.7,22.9l-1.4,0.2c0-0.3-0.1-0.5-0.3-0.6s-0.4-0.2-0.6-0.2c-0.3,0-0.6,0.1-0.8,0.4c-0.2,0.2-0.3,0.6-0.3,1.2
		c0,0.6,0.1,1,0.3,1.3s0.5,0.4,0.8,0.4c0.3,0,0.5-0.1,0.6-0.2c0.2-0.1,0.3-0.4,0.4-0.8l1.3,0.2c-0.1,0.6-0.4,1.1-0.8,1.4
		s-0.9,0.5-1.6,0.5c-0.8,0-1.4-0.2-1.8-0.7s-0.7-1.1-0.7-2c0-0.9,0.2-1.5,0.7-2c0.5-0.5,1.1-0.7,1.8-0.7c0.6,0,1.1,0.1,1.5,0.4
		C55.3,22,55.6,22.4,55.7,22.9z"/>
	<path d="M61.3,22.9l-1.4,0.2c0-0.3-0.1-0.5-0.3-0.6s-0.4-0.2-0.6-0.2c-0.3,0-0.6,0.1-0.8,0.4c-0.2,0.2-0.3,0.6-0.3,1.2
		c0,0.6,0.1,1,0.3,1.3s0.5,0.4,0.8,0.4c0.3,0,0.5-0.1,0.6-0.2c0.2-0.1,0.3-0.4,0.4-0.8l1.3,0.2c-0.1,0.6-0.4,1.1-0.8,1.4
		s-0.9,0.5-1.6,0.5c-0.8,0-1.4-0.2-1.8-0.7s-0.7-1.1-0.7-2c0-0.9,0.2-1.5,0.7-2c0.5-0.5,1.1-0.7,1.8-0.7c0.6,0,1.1,0.1,1.5,0.4
		C60.9,22,61.1,22.4,61.3,22.9z"/>
</g>
</svg>
